<mxfile host="app.diagrams.net" modified="2023-05-30T13:56:51.783Z" agent="Mozilla/5.0 (Windows NT 10.0; Win64; x64) AppleWebKit/537.36 (KHTML, like Gecko) Chrome/113.0.0.0 Safari/537.36" etag="I5cXsEdDoc18ZHpoCtnQ" version="21.3.5" type="github">
  <diagram name="Page-1" id="d1OgQnOwHl5c-QZ_qcuS">
    <mxGraphModel dx="1036" dy="533" grid="1" gridSize="10" guides="1" tooltips="1" connect="1" arrows="1" fold="1" page="1" pageScale="1" pageWidth="1169" pageHeight="827" math="0" shadow="0">
      <root>
        <mxCell id="0" />
        <mxCell id="1" parent="0" />
        <mxCell id="GUBgSWJSK-x5hO_Xz7Kr-1" value="&amp;lt;&amp;lt;Class&amp;gt;&amp;gt;&lt;br&gt;MenuTemplate" style="swimlane;whiteSpace=wrap;html=1;startSize=40;" vertex="1" parent="1">
          <mxGeometry x="400" y="40" width="270" height="220" as="geometry" />
        </mxCell>
        <mxCell id="GUBgSWJSK-x5hO_Xz7Kr-12" value="+isLine : boolean&lt;br&gt;" style="text;html=1;align=center;verticalAlign=middle;resizable=0;points=[];autosize=1;strokeColor=none;fillColor=none;" vertex="1" parent="GUBgSWJSK-x5hO_Xz7Kr-1">
          <mxGeometry y="40" width="110" height="30" as="geometry" />
        </mxCell>
        <mxCell id="GUBgSWJSK-x5hO_Xz7Kr-13" value="+isGrid : boolean" style="text;html=1;align=center;verticalAlign=middle;resizable=0;points=[];autosize=1;strokeColor=none;fillColor=none;" vertex="1" parent="GUBgSWJSK-x5hO_Xz7Kr-1">
          <mxGeometry y="60" width="110" height="30" as="geometry" />
        </mxCell>
        <mxCell id="GUBgSWJSK-x5hO_Xz7Kr-14" value="+showProductsImage(): void" style="text;html=1;align=center;verticalAlign=middle;resizable=0;points=[];autosize=1;strokeColor=none;fillColor=none;" vertex="1" parent="GUBgSWJSK-x5hO_Xz7Kr-1">
          <mxGeometry x="-5" y="90" width="180" height="30" as="geometry" />
        </mxCell>
        <mxCell id="GUBgSWJSK-x5hO_Xz7Kr-16" value="+showProductName() : void" style="text;html=1;align=center;verticalAlign=middle;resizable=0;points=[];autosize=1;strokeColor=none;fillColor=none;" vertex="1" parent="GUBgSWJSK-x5hO_Xz7Kr-1">
          <mxGeometry y="110" width="170" height="30" as="geometry" />
        </mxCell>
        <mxCell id="GUBgSWJSK-x5hO_Xz7Kr-17" value="+showProductsDetails() : void" style="text;html=1;align=center;verticalAlign=middle;resizable=0;points=[];autosize=1;strokeColor=none;fillColor=none;" vertex="1" parent="GUBgSWJSK-x5hO_Xz7Kr-1">
          <mxGeometry y="130" width="180" height="30" as="geometry" />
        </mxCell>
        <mxCell id="GUBgSWJSK-x5hO_Xz7Kr-18" value="+setLine() : void" style="text;html=1;align=center;verticalAlign=middle;resizable=0;points=[];autosize=1;strokeColor=none;fillColor=none;" vertex="1" parent="GUBgSWJSK-x5hO_Xz7Kr-1">
          <mxGeometry y="150" width="110" height="30" as="geometry" />
        </mxCell>
        <mxCell id="GUBgSWJSK-x5hO_Xz7Kr-19" value="+setGrid() : void" style="text;html=1;align=center;verticalAlign=middle;resizable=0;points=[];autosize=1;strokeColor=none;fillColor=none;" vertex="1" parent="GUBgSWJSK-x5hO_Xz7Kr-1">
          <mxGeometry y="170" width="110" height="30" as="geometry" />
        </mxCell>
        <mxCell id="GUBgSWJSK-x5hO_Xz7Kr-21" value="+chooseMenuTemplate(boolean, boolean): void" style="text;html=1;align=center;verticalAlign=middle;resizable=0;points=[];autosize=1;strokeColor=none;fillColor=none;" vertex="1" parent="GUBgSWJSK-x5hO_Xz7Kr-1">
          <mxGeometry x="-5" y="190" width="280" height="30" as="geometry" />
        </mxCell>
        <mxCell id="GUBgSWJSK-x5hO_Xz7Kr-4" style="edgeStyle=orthogonalEdgeStyle;rounded=0;orthogonalLoop=1;jettySize=auto;html=1;exitX=0.5;exitY=0;exitDx=0;exitDy=0;entryX=0;entryY=0.5;entryDx=0;entryDy=0;" edge="1" parent="1" source="GUBgSWJSK-x5hO_Xz7Kr-2" target="GUBgSWJSK-x5hO_Xz7Kr-1">
          <mxGeometry relative="1" as="geometry" />
        </mxCell>
        <mxCell id="GUBgSWJSK-x5hO_Xz7Kr-2" value="&amp;lt;&amp;lt;Class&amp;gt;&amp;gt;&lt;br&gt;GridMenu Template" style="swimlane;whiteSpace=wrap;html=1;startSize=40;" vertex="1" parent="1">
          <mxGeometry x="170" y="330" width="200" height="100" as="geometry" />
        </mxCell>
        <mxCell id="GUBgSWJSK-x5hO_Xz7Kr-8" value="+showProductsImage(): void" style="text;html=1;align=center;verticalAlign=middle;resizable=0;points=[];autosize=1;strokeColor=none;fillColor=none;" vertex="1" parent="GUBgSWJSK-x5hO_Xz7Kr-2">
          <mxGeometry y="40" width="180" height="30" as="geometry" />
        </mxCell>
        <mxCell id="GUBgSWJSK-x5hO_Xz7Kr-10" value="+showProductName() : void" style="text;html=1;align=center;verticalAlign=middle;resizable=0;points=[];autosize=1;strokeColor=none;fillColor=none;" vertex="1" parent="GUBgSWJSK-x5hO_Xz7Kr-2">
          <mxGeometry x="5" y="69" width="170" height="30" as="geometry" />
        </mxCell>
        <mxCell id="GUBgSWJSK-x5hO_Xz7Kr-5" style="edgeStyle=orthogonalEdgeStyle;rounded=0;orthogonalLoop=1;jettySize=auto;html=1;exitX=0.5;exitY=0;exitDx=0;exitDy=0;" edge="1" parent="1" source="GUBgSWJSK-x5hO_Xz7Kr-3">
          <mxGeometry relative="1" as="geometry">
            <mxPoint x="670" y="140" as="targetPoint" />
            <Array as="points">
              <mxPoint x="760" y="330" />
              <mxPoint x="760" y="140" />
            </Array>
          </mxGeometry>
        </mxCell>
        <mxCell id="GUBgSWJSK-x5hO_Xz7Kr-3" value="&amp;lt;&amp;lt;Class&amp;gt;&amp;gt;&lt;br&gt;LineMenu Template" style="swimlane;whiteSpace=wrap;html=1;startSize=40;" vertex="1" parent="1">
          <mxGeometry x="650" y="330" width="200" height="100" as="geometry" />
        </mxCell>
        <mxCell id="GUBgSWJSK-x5hO_Xz7Kr-9" value="+showProductsImage(): void" style="text;html=1;align=center;verticalAlign=middle;resizable=0;points=[];autosize=1;strokeColor=none;fillColor=none;" vertex="1" parent="GUBgSWJSK-x5hO_Xz7Kr-3">
          <mxGeometry y="40" width="180" height="30" as="geometry" />
        </mxCell>
        <mxCell id="GUBgSWJSK-x5hO_Xz7Kr-11" value="+showProductName() : void" style="text;html=1;align=center;verticalAlign=middle;resizable=0;points=[];autosize=1;strokeColor=none;fillColor=none;" vertex="1" parent="GUBgSWJSK-x5hO_Xz7Kr-3">
          <mxGeometry x="5" y="69" width="170" height="30" as="geometry" />
        </mxCell>
        <mxCell id="GUBgSWJSK-x5hO_Xz7Kr-6" value="" style="endArrow=none;html=1;rounded=0;" edge="1" parent="1">
          <mxGeometry width="50" height="50" relative="1" as="geometry">
            <mxPoint x="400" y="130" as="sourcePoint" />
            <mxPoint x="670" y="130" as="targetPoint" />
          </mxGeometry>
        </mxCell>
      </root>
    </mxGraphModel>
  </diagram>
</mxfile>
